HIERARCHY
ROOT Hips
{
	OFFSET 0.000000 0.000000 0.000000
	CHANNELS 6 Xposition Yposition Zposition Xrotation Yrotation Zrotation
	JOINT LeftUpLeg_virtual
	{
		OFFSET 0.000000 0.000000 0.000000
		CHANNELS 3 Xrotation Yrotation Zrotation
		JOINT LeftUpLeg
		{
			OFFSET 11.394100 -6.187798 -0.413800
			CHANNELS 3 Xrotation Yrotation Zrotation
			JOINT LeftLeg
			{
				OFFSET 0.430247 -32.302673 3.732800
				CHANNELS 3 Xrotation Yrotation Zrotation
				JOINT LeftFoot
				{
					OFFSET -0.430247 -48.264931 -6.423300
					CHANNELS 3 Xrotation Yrotation Zrotation
					JOINT LeftToeBase
					{
						OFFSET 4.230900 -16.068199 23.438400
						CHANNELS 3 Xrotation Yrotation Zrotation
						JOINT LeftToe_End
						{
							OFFSET 4.510700 0.695400 19.974600
							CHANNELS 3 Xrotation Yrotation Zrotation
							End Site
							{
								OFFSET 0 0 0
							}
						}
					}
				}
			}
		}
	}
	JOINT RightUpLeg_virtual
	{
		OFFSET 0.000000 0.000000 0.000000
		CHANNELS 3 Xrotation Yrotation Zrotation
		JOINT RightUpLeg
		{
			OFFSET -11.333700 -6.187798 -0.413800
			CHANNELS 3 Xrotation Yrotation Zrotation
			JOINT RightLeg
			{
				OFFSET -0.430392 -32.302628 3.733000
				CHANNELS 3 Xrotation Yrotation Zrotation
				JOINT RightFoot
				{
					OFFSET 0.430392 -48.264973 -6.423500
					CHANNELS 3 Xrotation Yrotation Zrotation
					JOINT RightToeBase
					{
						OFFSET -4.230900 -16.068199 23.438400
						CHANNELS 3 Xrotation Yrotation Zrotation
						JOINT RightToe_End
						{
							OFFSET -4.510700 0.695400 19.974600
							CHANNELS 3 Xrotation Yrotation Zrotation
							End Site
							{
								OFFSET 0 0 0
							}
						}
					}
				}
			}
		}
	}
	JOINT Spine_virtual
	{
		OFFSET 0.000000 0.000000 0.000000
		CHANNELS 3 Xrotation Yrotation Zrotation
		JOINT Spine
		{
			OFFSET -0.002400 12.777504 0.315300
			CHANNELS 3 Xrotation Yrotation Zrotation
			JOINT Spine1
			{
				OFFSET -0.002067 5.816869 0.032633
				CHANNELS 3 Xrotation Yrotation Zrotation
				JOINT Spine1_split
				{
					OFFSET -0.002067 5.816869 0.032633
					CHANNELS 3 Xrotation Yrotation Zrotation
					JOINT Spine2
					{
						OFFSET -0.002067 5.816869 0.032633
						CHANNELS 3 Xrotation Yrotation Zrotation
						JOINT Neck_virtual
						{
							OFFSET 0.000000 0.000000 0.000000
							CHANNELS 3 Xrotation Yrotation Zrotation
							JOINT Neck
							{
								OFFSET -0.003700 21.199493 -0.826900
								CHANNELS 3 Xrotation Yrotation Zrotation
								JOINT Head
								{
									OFFSET 0.000000 20.442200 4.834800
									CHANNELS 3 Xrotation Yrotation Zrotation
									JOINT HeadTop_End
									{
										OFFSET 0.000000 34.668396 4.968400
										CHANNELS 3 Xrotation Yrotation Zrotation
										End Site
										{
											OFFSET 0 0 0
										}
									}
								}
							}
						}
						JOINT LeftShoulder_virtual
						{
							OFFSET 0.000000 0.000000 0.000000
							CHANNELS 3 Xrotation Yrotation Zrotation
							JOINT LeftShoulder
							{
								OFFSET 3.288150 8.794197 -1.372250
								CHANNELS 3 Xrotation Yrotation Zrotation
								JOINT LeftShoulder_split
								{
									OFFSET 3.288150 8.794197 -1.372250
									CHANNELS 3 Xrotation Yrotation Zrotation
									JOINT LeftArm
									{
										OFFSET 11.953299 -2.279007 -0.146200
										CHANNELS 3 Xrotation Yrotation Zrotation
										JOINT LeftForeArm
										{
											OFFSET 18.448900 0.000000 0.000000
											CHANNELS 3 Xrotation Yrotation Zrotation
											JOINT LeftHand
											{
												OFFSET 29.527798 0.000000 0.000000
												CHANNELS 3 Xrotation Yrotation Zrotation
												End Site
												{
													OFFSET 0 0 0
												}
											}
										}
									}
								}
							}
						}
						JOINT RightShoulder_virtual
						{
							OFFSET 0.000000 0.000000 0.000000
							CHANNELS 3 Xrotation Yrotation Zrotation
							JOINT RightShoulder
							{
								OFFSET -3.249400 8.794197 -1.372250
								CHANNELS 3 Xrotation Yrotation Zrotation
								JOINT RightShoulder_split
								{
									OFFSET -3.249400 8.794197 -1.372250
									CHANNELS 3 Xrotation Yrotation Zrotation
									JOINT RightArm
									{
										OFFSET -11.953299 -2.279007 -0.146200
										CHANNELS 3 Xrotation Yrotation Zrotation
										JOINT RightForeArm
										{
											OFFSET -18.448900 0.000000 0.000000
											CHANNELS 3 Xrotation Yrotation Zrotation
											JOINT RightHand
											{
												OFFSET -29.527802 0.000000 0.000000
												CHANNELS 3 Xrotation Yrotation Zrotation
												End Site
												{
													OFFSET 0 0 0
												}
											}
										}
									}
								}
							}
						}
					}
				}
			}
		}
	}
}
MOTION
Frames: 5
Frame Time: 0.03333333
-0.112776 81.574997 -5.806522 0.000000 0.000000 0.000000 -3.492020 -49.718982 3.530447 -28.971777 -0.735977 11.059260 54.539733 -0.710944 2.228823 -18.321359 7.024814 -11.651470 -1.920199 -0.888657 -10.103114 0.000000 0.000000 0.000000 -3.871371 -49.679039 3.717932 -36.713291 -16.447948 -26.152880 62.991946 9.463907 -8.887201 -17.943865 -27.165648 33.693391 9.080605 9.681087 -32.106124 0.000000 0.000000 0.000000 -3.929516 -45.145174 1.619792 13.838949 3.528628 -3.485717 -2.174660 -0.569049 -1.253168 0.058339 -0.251064 0.299788 0.000000 0.000000 0.000000 1.211910 1.104026 0.220091 9.436332 11.310856 0.212752 -10.996490 11.441853 -8.508419 0.000000 0.000000 0.000000 3.897566 -0.390077 0.233586 2.665395 6.610061 0.428767 -4.100914 -9.472560 -3.528703 -63.310376 2.454154 -48.344813 177.174957 -80.796705 173.461014 0.000000 0.000000 0.000000 2.420636 -0.664951 -0.153324 -1.982244 12.942204 -5.965104 -4.212414 -8.076081 4.239992 -52.959306 26.750890 85.524808 -123.617599 76.224870 130.616153 0.000000 0.000000 0.000000 
0.168774 80.891121 -4.501423 0.000000 0.000000 0.000000 -4.083721 -51.505739 3.329114 -30.926752 -0.854516 11.331213 55.908039 -0.313438 1.627315 -17.593584 8.277960 -11.536067 -2.376563 -0.675688 -10.950571 0.000000 0.000000 0.000000 -4.004063 -50.807397 3.728362 -36.568273 -15.740487 -26.490141 65.237835 9.690363 -9.172298 -19.547576 -27.224246 32.891913 11.571481 8.782490 -31.606338 0.000000 0.000000 0.000000 -4.381191 -46.080015 1.442041 14.300907 3.878973 -3.554697 -1.816542 -0.544629 -1.255206 0.037438 -0.267558 0.351394 0.000000 0.000000 0.000000 1.265348 1.053841 0.334701 9.103204 11.371252 0.691600 -12.035470 11.788905 -9.313491 0.000000 0.000000 0.000000 3.528227 -0.304370 0.161804 2.150112 6.658653 -0.321931 -3.187790 -11.660814 -1.840991 -64.408534 2.604551 -48.242938 170.293213 -81.040222 166.096759 0.000000 0.000000 0.000000 2.448533 -0.642076 -0.182659 -2.278521 13.057286 -5.788823 -2.397288 -7.544548 4.417295 -52.999809 28.115946 85.542061 -128.871873 75.071524 136.196677 0.000000 0.000000 0.000000 
0.569766 79.101685 -2.790749 0.000000 0.000000 0.000000 -4.664276 -53.340728 3.051384 -35.638530 -1.080298 12.649833 61.300019 -1.772645 1.233015 -15.783333 7.479601 -12.627357 -2.969187 -0.824180 -11.232014 0.000000 0.000000 0.000000 -4.007380 -52.401068 3.775491 -36.666897 -14.763464 -27.351265 67.729658 10.325883 -9.973632 -20.889474 -27.205895 33.162194 10.851931 8.810844 -31.120213 0.000000 0.000000 0.000000 -4.640118 -47.873513 1.381477 15.121704 4.903736 -3.050274 -1.355106 -0.451241 -1.320470 -0.023332 -0.203546 0.278267 0.000000 0.000000 0.000000 1.629633 1.051698 0.401307 8.336353 11.585643 1.223952 -13.891000 13.114166 -10.710860 0.000000 0.000000 0.000000 3.250790 -0.210838 0.028217 1.755564 6.168760 -1.423809 -1.408517 -11.949199 0.080812 -66.060893 3.100756 -47.273450 163.748253 -81.974045 158.455266 0.000000 0.000000 0.000000 2.262698 -0.619678 -0.179838 -2.648967 13.336328 -5.744280 -2.332451 -6.700603 3.967142 -51.275074 28.818405 84.484365 -135.204032 73.125276 142.462283 0.000000 0.000000 0.000000 
1.059551 76.464340 -0.915123 0.000000 0.000000 0.000000 -5.042943 -54.943288 2.839691 -42.413149 -1.599657 14.942798 69.503937 -4.985572 1.609075 -12.476311 4.621026 -15.096963 -5.822044 -1.229134 -10.245170 0.000000 0.000000 0.000000 -3.927702 -54.297589 3.766635 -37.285695 -13.529206 -28.672373 69.746805 11.427805 -11.160616 -21.681558 -26.955073 34.326547 7.316145 9.641535 -30.999032 0.000000 0.000000 0.000000 -4.810435 -50.224457 1.295056 16.180814 6.463951 -2.105660 -0.823013 -0.260146 -1.516834 0.002306 -0.110203 0.149773 0.000000 0.000000 0.000000 2.247450 1.137003 0.356595 7.195828 11.941100 1.734893 -16.430607 15.446555 -12.398065 0.000000 0.000000 0.000000 3.087724 -0.075982 -0.227724 1.584474 5.460532 -2.741022 0.696448 -10.547562 1.692652 -67.246928 4.786891 -45.091717 160.328637 -82.622408 153.717656 0.000000 0.000000 0.000000 1.974797 -0.550874 -0.240231 -3.091867 13.709738 -5.964787 -3.617841 -5.392892 3.093223 -48.261997 28.584243 82.781531 -139.538606 71.224980 146.302188 0.000000 0.000000 0.000000 
1.709833 73.419113 1.249113 0.000000 0.000000 0.000000 -5.109354 -56.477543 2.785377 -49.370144 -2.315256 17.782910 77.667672 -8.349086 2.586007 -9.523048 0.879532 -16.962428 -11.635531 -1.980836 -8.068310 0.000000 0.000000 0.000000 -3.635857 -56.420764 3.854137 -38.748008 -11.982696 -30.417363 71.157471 12.956345 -12.528286 -22.019611 -26.318946 35.996996 4.338743 10.417651 -31.606359 0.000000 0.000000 0.000000 -4.768748 -52.849716 1.376803 17.361279 8.137276 -0.960261 -0.291491 0.012687 -1.865572 0.062468 -0.095015 0.046771 0.000000 0.000000 0.000000 3.031817 1.328059 0.143386 5.907156 12.409394 2.204025 -19.090544 18.474417 -14.129527 0.000000 0.000000 0.000000 3.023963 0.117560 -0.675880 1.567652 4.657923 -4.184288 2.221609 -9.251469 3.806542 -66.887954 8.709628 -41.337510 162.943780 -81.212083 155.123582 0.000000 0.000000 0.000000 1.728015 -0.374075 -0.418334 -3.662283 14.141130 -6.624049 -5.403084 -3.991396 2.243935 -44.890568 27.815771 81.190465 -141.744498 70.161793 147.661655 0.000000 0.000000 0.000000 
